<mxfile host="65bd71144e">
    <diagram id="LkEm-quu-qTyjTNpw8fJ" name="Page-1">
        <mxGraphModel dx="1903" dy="759" grid="1" gridSize="10" guides="1" tooltips="1" connect="1" arrows="1" fold="1" page="1" pageScale="1" pageWidth="827" pageHeight="1169" math="0" shadow="0">
            <root>
                <mxCell id="0"/>
                <mxCell id="1" parent="0"/>
                <mxCell id="4" style="edgeStyle=none;html=1;exitX=0.5;exitY=1;exitDx=0;exitDy=0;entryX=0.5;entryY=0;entryDx=0;entryDy=0;" edge="1" parent="1" source="2" target="14">
                    <mxGeometry relative="1" as="geometry">
                        <mxPoint x="554" y="140" as="targetPoint"/>
                    </mxGeometry>
                </mxCell>
                <mxCell id="2" value="Start" style="rounded=1;whiteSpace=wrap;html=1;arcSize=50;" vertex="1" parent="1">
                    <mxGeometry x="549" y="70" width="120" height="50" as="geometry"/>
                </mxCell>
                <mxCell id="6" style="edgeStyle=none;html=1;exitX=0.5;exitY=1;exitDx=0;exitDy=0;entryX=0.5;entryY=0;entryDx=0;entryDy=0;" edge="1" parent="1" source="14" target="5">
                    <mxGeometry relative="1" as="geometry">
                        <mxPoint x="554" y="200" as="sourcePoint"/>
                    </mxGeometry>
                </mxCell>
                <mxCell id="7" style="edgeStyle=none;html=1;exitX=0.5;exitY=1;exitDx=0;exitDy=0;" edge="1" parent="1" source="5">
                    <mxGeometry relative="1" as="geometry">
                        <mxPoint x="609" y="450" as="targetPoint"/>
                    </mxGeometry>
                </mxCell>
                <mxCell id="12" style="edgeStyle=none;html=1;exitX=0;exitY=0.5;exitDx=0;exitDy=0;entryX=1;entryY=0.5;entryDx=0;entryDy=0;" edge="1" parent="1" source="5" target="11">
                    <mxGeometry relative="1" as="geometry"/>
                </mxCell>
                <mxCell id="5" value="for (int i =0; i&amp;lt;mas1.Length; i++)" style="rhombus;whiteSpace=wrap;html=1;" vertex="1" parent="1">
                    <mxGeometry x="509.5" y="250" width="199" height="119" as="geometry"/>
                </mxCell>
                <mxCell id="8" value="Yes" style="text;html=1;align=center;verticalAlign=middle;resizable=0;points=[];autosize=1;strokeColor=none;fillColor=none;" vertex="1" parent="1">
                    <mxGeometry x="609" y="410" width="40" height="20" as="geometry"/>
                </mxCell>
                <mxCell id="10" style="edgeStyle=none;html=1;exitX=1;exitY=0.5;exitDx=0;exitDy=0;entryX=1;entryY=0.5;entryDx=0;entryDy=0;" edge="1" parent="1" source="9" target="5">
                    <mxGeometry relative="1" as="geometry">
                        <Array as="points">
                            <mxPoint x="759" y="480"/>
                            <mxPoint x="759" y="310"/>
                        </Array>
                    </mxGeometry>
                </mxCell>
                <mxCell id="9" value="string x&lt;br&gt;mas[i]=x" style="rounded=0;whiteSpace=wrap;html=1;" vertex="1" parent="1">
                    <mxGeometry x="559" y="450" width="120" height="60" as="geometry"/>
                </mxCell>
                <mxCell id="18" style="edgeStyle=none;html=1;exitX=0.5;exitY=1;exitDx=0;exitDy=0;" edge="1" parent="1" source="11" target="17">
                    <mxGeometry relative="1" as="geometry"/>
                </mxCell>
                <mxCell id="11" value="SecondMas" style="shape=hexagon;perimeter=hexagonPerimeter2;whiteSpace=wrap;html=1;fixedSize=1;" vertex="1" parent="1">
                    <mxGeometry x="240" y="270.5" width="180" height="80" as="geometry"/>
                </mxCell>
                <mxCell id="13" value="No" style="text;html=1;align=center;verticalAlign=middle;resizable=0;points=[];autosize=1;strokeColor=none;fillColor=none;" vertex="1" parent="1">
                    <mxGeometry x="489" y="280" width="30" height="20" as="geometry"/>
                </mxCell>
                <mxCell id="14" value="&lt;span&gt;int size&lt;/span&gt;&lt;br&gt;&lt;span&gt;string mas1[size]&lt;/span&gt;&lt;br&gt;&lt;span&gt;string mas2[mas1.Length]&lt;/span&gt;" style="shape=parallelogram;perimeter=parallelogramPerimeter;whiteSpace=wrap;html=1;fixedSize=1;" vertex="1" parent="1">
                    <mxGeometry x="514" y="150" width="190" height="60" as="geometry"/>
                </mxCell>
                <mxCell id="20" style="edgeStyle=none;html=1;exitX=0;exitY=0.5;exitDx=0;exitDy=0;entryX=1;entryY=0.5;entryDx=0;entryDy=0;" edge="1" parent="1" source="15" target="21">
                    <mxGeometry relative="1" as="geometry">
                        <mxPoint x="160" y="529.1176470588236" as="targetPoint"/>
                    </mxGeometry>
                </mxCell>
                <mxCell id="28" style="edgeStyle=none;html=1;exitX=1;exitY=0.5;exitDx=0;exitDy=0;" edge="1" parent="1" source="15" target="29">
                    <mxGeometry relative="1" as="geometry">
                        <mxPoint x="480" y="529.5714285714287" as="targetPoint"/>
                    </mxGeometry>
                </mxCell>
                <mxCell id="15" value="for (int j =0; j&amp;lt;array1.Length; j++)" style="rhombus;whiteSpace=wrap;html=1;" vertex="1" parent="1">
                    <mxGeometry x="230.5" y="470" width="199" height="119" as="geometry"/>
                </mxCell>
                <mxCell id="19" style="edgeStyle=none;html=1;exitX=0.5;exitY=1;exitDx=0;exitDy=0;entryX=0.5;entryY=0;entryDx=0;entryDy=0;" edge="1" parent="1" source="17" target="15">
                    <mxGeometry relative="1" as="geometry"/>
                </mxCell>
                <mxCell id="17" value="string [] array1&lt;br&gt;string [] array2&lt;br&gt;int count" style="shape=parallelogram;perimeter=parallelogramPerimeter;whiteSpace=wrap;html=1;fixedSize=1;" vertex="1" parent="1">
                    <mxGeometry x="270" y="380" width="120" height="60" as="geometry"/>
                </mxCell>
                <mxCell id="22" style="edgeStyle=none;html=1;exitX=0.5;exitY=1;exitDx=0;exitDy=0;entryX=0.5;entryY=0;entryDx=0;entryDy=0;" edge="1" parent="1" source="21" target="24">
                    <mxGeometry relative="1" as="geometry">
                        <mxPoint x="120.05882352941171" y="630" as="targetPoint"/>
                    </mxGeometry>
                </mxCell>
                <mxCell id="25" style="edgeStyle=none;html=1;exitX=0;exitY=0.5;exitDx=0;exitDy=0;entryX=0.5;entryY=1;entryDx=0;entryDy=0;" edge="1" parent="1" source="21" target="15">
                    <mxGeometry relative="1" as="geometry">
                        <Array as="points">
                            <mxPoint x="10" y="530"/>
                            <mxPoint x="10" y="690"/>
                            <mxPoint x="330" y="690"/>
                        </Array>
                    </mxGeometry>
                </mxCell>
                <mxCell id="21" value="if (array1[j].Length&amp;lt;=3)" style="rhombus;whiteSpace=wrap;html=1;" vertex="1" parent="1">
                    <mxGeometry x="40" y="489.5" width="160" height="80" as="geometry"/>
                </mxCell>
                <mxCell id="23" value="Yes" style="text;html=1;align=center;verticalAlign=middle;resizable=0;points=[];autosize=1;strokeColor=none;fillColor=none;" vertex="1" parent="1">
                    <mxGeometry x="120" y="570" width="40" height="20" as="geometry"/>
                </mxCell>
                <mxCell id="24" value="array2[count] = array1[j]&lt;br&gt;count++" style="rounded=0;whiteSpace=wrap;html=1;" vertex="1" parent="1">
                    <mxGeometry x="40" y="610" width="160" height="60" as="geometry"/>
                </mxCell>
                <mxCell id="26" value="No" style="text;html=1;align=center;verticalAlign=middle;resizable=0;points=[];autosize=1;strokeColor=none;fillColor=none;" vertex="1" parent="1">
                    <mxGeometry x="25" y="500" width="30" height="20" as="geometry"/>
                </mxCell>
                <mxCell id="27" value="Yes" style="text;html=1;align=center;verticalAlign=middle;resizable=0;points=[];autosize=1;strokeColor=none;fillColor=none;" vertex="1" parent="1">
                    <mxGeometry x="210" y="490" width="40" height="20" as="geometry"/>
                </mxCell>
                <mxCell id="31" style="edgeStyle=none;html=1;exitX=0.5;exitY=1;exitDx=0;exitDy=0;entryX=0.5;entryY=0;entryDx=0;entryDy=0;" edge="1" parent="1" source="29" target="30">
                    <mxGeometry relative="1" as="geometry"/>
                </mxCell>
                <mxCell id="29" value="Print" style="shape=hexagon;perimeter=hexagonPerimeter2;whiteSpace=wrap;html=1;fixedSize=1;" vertex="1" parent="1">
                    <mxGeometry x="458.62" y="500" width="90.75" height="60.5" as="geometry"/>
                </mxCell>
                <mxCell id="30" value="End" style="rounded=1;whiteSpace=wrap;html=1;arcSize=50;" vertex="1" parent="1">
                    <mxGeometry x="452" y="600" width="104" height="52" as="geometry"/>
                </mxCell>
            </root>
        </mxGraphModel>
    </diagram>
</mxfile>